<svg width="40" height="38" viewBox="0 0 40 38" fill="none" xmlns="http://www.w3.org/2000/svg">
<path id="Vector" d="M12.3542 18.6667C10.1042 18.7361 8.26389 19.625 6.83333 21.3333H4.04167C2.90278 21.3333 1.94444 21.0521 1.16667 20.4896C0.388889 19.9271 0 19.1042 0 18.0208C0 13.1181 0.861111 10.6667 2.58333 10.6667C2.66667 10.6667 2.96875 10.8125 3.48958 11.1042C4.01042 11.3958 4.6875 11.691 5.52083 11.9896C6.35417 12.2882 7.18056 12.4375 8 12.4375C8.93056 12.4375 9.85417 12.2778 10.7708 11.9583C10.7014 12.4722 10.6667 12.9306 10.6667 13.3333C10.6667 15.2639 11.2292 17.0417 12.3542 18.6667ZM34.6667 31.9375C34.6667 33.6042 34.1597 34.9201 33.1458 35.8854C32.1319 36.8507 30.7847 37.3333 29.1042 37.3333H10.8958C9.21528 37.3333 7.86806 36.8507 6.85417 35.8854C5.84028 34.9201 5.33333 33.6042 5.33333 31.9375C5.33333 31.2014 5.35764 30.4826 5.40625 29.7812C5.45486 29.0799 5.55208 28.3229 5.69792 27.5104C5.84375 26.6979 6.02778 25.9444 6.25 25.25C6.47222 24.5556 6.77083 23.8785 7.14583 23.2187C7.52083 22.559 7.95139 21.9965 8.4375 21.5312C8.92361 21.066 9.51736 20.6944 10.2188 20.4167C10.9201 20.1389 11.6944 20 12.5417 20C12.6806 20 12.9792 20.1493 13.4375 20.4479C13.8958 20.7465 14.4028 21.0799 14.9583 21.4479C15.5139 21.816 16.2569 22.1493 17.1875 22.4479C18.1181 22.7465 19.0556 22.8958 20 22.8958C20.9444 22.8958 21.8819 22.7465 22.8125 22.4479C23.7431 22.1493 24.4861 21.816 25.0417 21.4479C25.5972 21.0799 26.1042 20.7465 26.5625 20.4479C27.0208 20.1493 27.3194 20 27.4583 20C28.3056 20 29.0799 20.1389 29.7812 20.4167C30.4826 20.6944 31.0764 21.066 31.5625 21.5312C32.0486 21.9965 32.4792 22.559 32.8542 23.2187C33.2292 23.8785 33.5278 24.5556 33.75 25.25C33.9722 25.9444 34.1562 26.6979 34.3021 27.5104C34.4479 28.3229 34.5451 29.0799 34.5938 29.7812C34.6424 30.4826 34.6667 31.2014 34.6667 31.9375ZM13.3333 5.33333C13.3333 6.80555 12.8125 8.0625 11.7708 9.10417C10.7292 10.1458 9.47222 10.6667 8 10.6667C6.52778 10.6667 5.27083 10.1458 4.22917 9.10417C3.1875 8.0625 2.66667 6.80555 2.66667 5.33333C2.66667 3.86111 3.1875 2.60417 4.22917 1.5625C5.27083 0.520833 6.52778 0 8 0C9.47222 0 10.7292 0.520833 11.7708 1.5625C12.8125 2.60417 13.3333 3.86111 13.3333 5.33333ZM28 13.3333C28 15.5417 27.2188 17.4271 25.6562 18.9896C24.0938 20.5521 22.2083 21.3333 20 21.3333C17.7917 21.3333 15.9062 20.5521 14.3438 18.9896C12.7812 17.4271 12 15.5417 12 13.3333C12 11.125 12.7812 9.23958 14.3438 7.67708C15.9062 6.11458 17.7917 5.33333 20 5.33333C22.2083 5.33333 24.0938 6.11458 25.6562 7.67708C27.2188 9.23958 28 11.125 28 13.3333ZM40 18.0208C40 19.1042 39.6111 19.9271 38.8333 20.4896C38.0556 21.0521 37.0972 21.3333 35.9583 21.3333H33.1667C31.7361 19.625 29.8958 18.7361 27.6458 18.6667C28.7708 17.0417 29.3333 15.2639 29.3333 13.3333C29.3333 12.9306 29.2986 12.4722 29.2292 11.9583C30.1458 12.2778 31.0694 12.4375 32 12.4375C32.8194 12.4375 33.6458 12.2882 34.4792 11.9896C35.3125 11.691 35.9896 11.3958 36.5104 11.1042C37.0312 10.8125 37.3333 10.6667 37.4167 10.6667C39.1389 10.6667 40 13.1181 40 18.0208ZM37.3333 5.33333C37.3333 6.80555 36.8125 8.0625 35.7708 9.10417C34.7292 10.1458 33.4722 10.6667 32 10.6667C30.5278 10.6667 29.2708 10.1458 28.2292 9.10417C27.1875 8.0625 26.6667 6.80555 26.6667 5.33333C26.6667 3.86111 27.1875 2.60417 28.2292 1.5625C29.2708 0.520833 30.5278 0 32 0C33.4722 0 34.7292 0.520833 35.7708 1.5625C36.8125 2.60417 37.3333 3.86111 37.3333 5.33333Z" fill="#797979"/>
</svg>
