<svg width="63" height="52" viewBox="0 0 63 52" fill="none" xmlns="http://www.w3.org/2000/svg">
<g id="exclamation-triangle-fill 1" clip-path="url(#clip0_223_381)">
<path id="Vector" d="M35.2182 5.08953C34.8381 4.52911 34.29 4.0635 33.6293 3.73971C32.9686 3.41592 32.2186 3.24542 31.4551 3.24542C30.6917 3.24542 29.9417 3.41592 29.281 3.73971C28.6202 4.0635 28.0722 4.52911 27.692 5.08953L1.36193 43.0073C-0.3929 45.5358 1.71136 48.75 5.12502 48.75H57.7814C61.1951 48.75 63.3032 45.5325 61.5445 43.0073L35.2182 5.08953ZM31.4475 16.25C33.5018 16.25 35.1107 17.7515 34.9034 19.4838L33.5594 30.8815C33.5142 31.3293 33.2722 31.7464 32.8811 32.0503C32.49 32.3543 31.9784 32.523 31.4475 32.523C30.9165 32.523 30.4049 32.3543 30.0138 32.0503C29.6227 31.7464 29.3807 31.3293 29.3355 30.8815L27.9916 19.4838C27.9433 19.075 27.9967 18.6623 28.1484 18.2721C28.3001 17.8819 28.5466 17.5229 28.8722 17.2182C29.1978 16.9136 29.5951 16.6701 30.0387 16.5033C30.4822 16.3365 30.9621 16.2503 31.4475 16.25ZM31.4551 35.75C32.4735 35.75 33.4502 36.0924 34.1703 36.7019C34.8905 37.3114 35.295 38.1381 35.295 39C35.295 39.862 34.8905 40.6886 34.1703 41.2981C33.4502 41.9076 32.4735 42.25 31.4551 42.25C30.4367 42.25 29.46 41.9076 28.7399 41.2981C28.0198 40.6886 27.6152 39.862 27.6152 39C27.6152 38.1381 28.0198 37.3114 28.7399 36.7019C29.46 36.0924 30.4367 35.75 31.4551 35.75Z" fill="#D70F0F"/>
</g>
<defs>
<clipPath id="clip0_223_381">
<rect width="61.4382" height="52" fill="white" transform="translate(0.728271)"/>
</clipPath>
</defs>
</svg>
