<svg width="40" height="40" viewBox="0 0 40 40" fill="none" xmlns="http://www.w3.org/2000/svg">
<g id="mage:notification-bell-pending-fill">
<path id="Vector" d="M35.6167 27.5783C35.5517 28.2416 35.3167 28.8766 34.9333 29.42C34.569 29.9465 34.0823 30.3766 33.515 30.6736C32.9478 30.9706 32.3169 31.1255 31.6767 31.125H26.6833C26.6 31.575 26.4733 32.0133 26.3083 32.4383C25.9644 33.2774 25.4607 34.0416 24.825 34.6883C24.1826 35.3334 23.4176 35.8434 22.575 36.1883C21.7721 36.5092 20.9147 36.6716 20.05 36.6666H19.8633C18.978 36.6674 18.1018 36.4876 17.2883 36.1383C16.4584 35.7954 15.7044 35.2921 15.0695 34.6572C14.4345 34.0222 13.9312 33.2682 13.5883 32.4383C13.4142 32.0161 13.2884 31.5755 13.2133 31.125H8.38667C7.75855 31.1736 7.12812 31.0668 6.5511 30.8139C5.97409 30.561 5.46826 30.1698 5.07834 29.675C4.7052 29.075 4.47295 28.3983 4.39905 27.6956C4.32515 26.993 4.41152 26.2827 4.65167 25.6183C5.02001 24.6316 5.52501 23.7016 6.15167 22.855C6.86624 21.9862 7.34291 20.9467 7.53501 19.8383C7.53501 14.8933 7.53501 13.2383 10.2283 10.0333C11.1165 8.97192 12.2204 8.11175 13.4667 7.50996L14.815 6.86329C14.8722 6.83159 14.919 6.78416 14.95 6.72663C15.0123 6.66717 15.0543 6.58962 15.07 6.50496C15.2715 5.3695 15.8771 4.34532 16.775 3.62163C16.9962 3.45583 17.2652 3.36621 17.5417 3.36621C17.8181 3.36621 18.0871 3.45583 18.3083 3.62163C18.5356 3.78216 18.7059 4.01069 18.7949 4.27428C18.8838 4.53788 18.8868 4.82291 18.8033 5.08829C18.8033 5.08829 16.8267 11.2616 20.5083 14.995C24.1917 18.7283 30.3467 15.2166 30.415 15.1833C30.6062 15.0709 30.824 15.0116 31.0458 15.0116C31.2677 15.0116 31.4854 15.0709 31.6767 15.1833C31.8685 15.2938 32.0278 15.4529 32.1387 15.6445C32.2496 15.8362 32.3081 16.0536 32.3083 16.275V19.9066C32.5383 21.09 33.06 22.1966 33.825 23.1283C34.435 23.945 34.9333 24.84 35.3083 25.7883C35.5583 26.35 35.6633 26.9666 35.615 27.5783" fill="#797979"/>
<path id="Vector_2" d="M25.505 13.5116C26.7347 13.5116 27.9141 13.0231 28.7836 12.1536C29.6532 11.284 30.1417 10.1047 30.1417 8.87495C30.1417 7.64523 29.6532 6.46587 28.7836 5.59633C27.9141 4.72679 26.7347 4.23828 25.505 4.23828C24.2753 4.23828 23.0959 4.72679 22.2264 5.59633C21.3569 6.46587 20.8683 7.64523 20.8683 8.87495C20.8683 10.1047 21.3569 11.284 22.2264 12.1536C23.0959 13.0231 24.2753 13.5116 25.505 13.5116Z" fill="#797979"/>
</g>
</svg>
