<svg width="34" height="32" viewBox="0 0 34 32" fill="none" xmlns="http://www.w3.org/2000/svg">
<path id="Vector" d="M30.3333 0.333252H3.66665C1.83331 0.333252 0.333313 1.83325 0.333313 3.66659V29.6499C0.333313 31.1333 2.13331 31.8832 3.18331 30.8333L6.99998 26.9999H30.3333C32.1666 26.9999 33.6666 25.4999 33.6666 23.6666V3.66659C33.6666 1.83325 32.1666 0.333252 30.3333 0.333252ZM19.6166 16.2833L17.75 20.3499C17.6837 20.4954 17.577 20.6188 17.4425 20.7053C17.308 20.7918 17.1515 20.8377 16.9916 20.8377C16.8318 20.8377 16.6753 20.7918 16.5408 20.7053C16.4063 20.6188 16.2996 20.4954 16.2333 20.3499L14.3666 16.2833L10.3 14.4166C10.1545 14.3503 10.0311 14.2436 9.94464 14.1091C9.85814 13.9746 9.81215 13.8181 9.81215 13.6583C9.81215 13.4984 9.85814 13.3419 9.94464 13.2074C10.0311 13.0729 10.1545 12.9662 10.3 12.8999L14.3666 11.0333L16.2333 6.96659C16.2996 6.82109 16.4063 6.69774 16.5408 6.61125C16.6753 6.52475 16.8318 6.47876 16.9916 6.47876C17.1515 6.47876 17.308 6.52475 17.4425 6.61125C17.577 6.69774 17.6837 6.82109 17.75 6.96659L19.6166 11.0333L23.6833 12.8999C23.8288 12.9662 23.9522 13.0729 24.0387 13.2074C24.1251 13.3419 24.1711 13.4984 24.1711 13.6583C24.1711 13.8181 24.1251 13.9746 24.0387 14.1091C23.9522 14.2436 23.8288 14.3503 23.6833 14.4166L19.6166 16.2833Z" fill="#797979"/>
</svg>
