<svg width="35" height="25" viewBox="0 0 35 25" fill="none" xmlns="http://www.w3.org/2000/svg">
<path id="Vector" d="M26.94 8.75L26.6025 8.63L23.765 3.31C23.2321 2.31023 22.4374 1.47412 21.466 0.891098C20.4946 0.308073 19.3829 6.04006e-05 18.25 5.20761e-09H11.105C9.79293 -5.35402e-05 8.51413 0.412816 7.4498 1.1801C6.38547 1.94738 5.58961 3.03017 5.175 4.275L3.8225 8.3325C2.68938 8.8101 1.72233 9.61133 1.04239 10.6359C0.362462 11.6605 -0.000134141 12.8628 3.72258e-08 14.0925V16.875C3.72258e-08 18.65 1.0575 20.175 2.575 20.8625C2.77152 21.9884 3.34786 23.0131 4.20803 23.7657C5.0682 24.5184 6.16027 24.9536 7.30234 24.9989C8.4444 25.0442 9.56752 24.6969 10.4846 24.0147C11.4017 23.3326 12.0574 22.3568 12.3425 21.25H22.6575C22.9426 22.3568 23.5983 23.3326 24.5154 24.0147C25.4325 24.6969 26.5556 25.0442 27.6977 24.9989C28.8397 24.9536 29.9318 24.5184 30.792 23.7657C31.6521 23.0131 32.2285 21.9884 32.425 20.8625C33.1924 20.5161 33.8435 19.9556 34.3003 19.2483C34.757 18.541 35 17.717 35 16.875V16.0275C34.9998 14.7373 34.6003 13.4788 33.8564 12.4247C33.1125 11.3705 32.0606 10.5725 30.845 10.14L27.07 8.7975V8.75H26.94ZM7.5425 5.065C7.79151 4.31737 8.26971 3.66718 8.90921 3.20674C9.5487 2.74631 10.317 2.49902 11.105 2.5H13.75V8.75H6.3175L7.5425 5.065ZM23.8325 8.75H16.25V2.5H18.25C18.9298 2.49976 19.5969 2.68433 20.18 3.03397C20.763 3.38362 21.24 3.88517 21.56 4.485L23.8325 8.75ZM5 20C5 19.337 5.26339 18.7011 5.73223 18.2322C6.20107 17.7634 6.83696 17.5 7.5 17.5C8.16304 17.5 8.79893 17.7634 9.26777 18.2322C9.73661 18.7011 10 19.337 10 20C10 20.663 9.73661 21.2989 9.26777 21.7678C8.79893 22.2366 8.16304 22.5 7.5 22.5C6.83696 22.5 6.20107 22.2366 5.73223 21.7678C5.26339 21.2989 5 20.663 5 20ZM27.5 17.5C28.163 17.5 28.7989 17.7634 29.2678 18.2322C29.7366 18.7011 30 19.337 30 20C30 20.663 29.7366 21.2989 29.2678 21.7678C28.7989 22.2366 28.163 22.5 27.5 22.5C26.837 22.5 26.2011 22.2366 25.7322 21.7678C25.2634 21.2989 25 20.663 25 20C25 19.337 25.2634 18.7011 25.7322 18.2322C26.2011 17.7634 26.837 17.5 27.5 17.5Z" fill="#797979"/>
</svg>
