<svg width="30" height="31" viewBox="0 0 30 31" fill="none" xmlns="http://www.w3.org/2000/svg">
<g id="graph">
<g id="Vector">
<path d="M14.1188 20.2419C14.1188 20.7504 14.531 21.1626 15.0395 21.1626C15.548 21.1626 15.9601 20.7504 15.9601 20.2419V7.35267C15.9601 6.8442 15.548 6.43201 15.0395 6.43201C14.531 6.43201 14.1188 6.8442 14.1188 7.35267L14.1188 20.2419Z" fill="#07326C"/>
<path d="M9.51553 20.2419C9.51553 20.7504 9.92772 21.1626 10.4362 21.1626C10.9447 21.1626 11.3568 20.7504 11.3568 20.2419L11.3568 12.8766C11.3568 12.3682 10.9447 11.956 10.4362 11.956C9.92772 11.956 9.51553 12.3682 9.51553 12.8766L9.51553 20.2419Z" fill="#07326C"/>
<path d="M6.75355 23.0039C6.24508 23.0039 5.83289 23.4161 5.83289 23.9246C5.83289 24.433 6.24508 24.8452 6.75355 24.8452H23.3254C23.8339 24.8452 24.2461 24.433 24.2461 23.9246C24.2461 23.4161 23.8339 23.0039 23.3254 23.0039H6.75355Z" fill="#07326C"/>
<path d="M19.6428 21.1626C19.1343 21.1626 18.7221 20.7504 18.7221 20.2419V12.8766C18.7221 12.3682 19.1343 11.956 19.6428 11.956C20.1513 11.956 20.5635 12.3682 20.5635 12.8766V20.2419C20.5635 20.7504 20.1513 21.1626 19.6428 21.1626Z" fill="#07326C"/>
</g>
</g>
</svg>
