<svg width="30" height="33" viewBox="0 0 30 33" fill="none" xmlns="http://www.w3.org/2000/svg">
<g id="Group">
<path id="Vector" d="M1.40163 12.0736C1.05537 12.3865 0.780699 12.7579 0.593301 13.1667C0.405902 13.5754 0.309448 14.0136 0.309448 14.4561C0.309448 14.8985 0.405902 15.3367 0.593301 15.7455C0.780699 16.1542 1.05537 16.5257 1.40163 16.8385L5.61996 20.6493C6.22555 21.1966 7.0212 21.5387 7.87311 21.6182C8.72502 21.6977 9.58123 21.5096 10.2978 21.0857C11.0143 20.6617 11.5474 20.0278 11.8076 19.2903C12.0677 18.5529 12.0389 17.7571 11.726 17.0366L12.9055 15.9707L22.459 25.9316C22.8336 26.3219 23.2932 26.6383 23.8091 26.8611C24.3249 27.0839 24.886 27.2083 25.4574 27.2266C26.0288 27.2449 26.5982 27.1566 27.1302 26.9674C27.6622 26.7781 28.1454 26.4919 28.5497 26.1266C28.9539 25.7612 29.2706 25.3246 29.48 24.8438C29.6895 24.363 29.7871 23.8484 29.7668 23.3321C29.7466 22.8157 29.6089 22.3086 29.3624 21.8424C29.1159 21.3763 28.7658 20.9609 28.3339 20.6224L17.3117 11.9887L18.4912 10.9242C19.2887 11.2076 20.1699 11.234 20.9864 10.999C21.803 10.7641 22.505 10.282 22.9744 9.63401C23.4437 8.98602 23.6516 8.2117 23.5632 7.44138C23.4748 6.67107 23.0953 5.95181 22.4888 5.40471L18.272 1.59255C17.6664 1.04527 16.8707 0.703121 16.0188 0.623647C15.1669 0.544174 14.3107 0.73222 13.5942 1.15616C12.8776 1.58011 12.3445 2.21409 12.0844 2.95151C11.8243 3.68892 11.853 4.48479 12.1659 5.20527L5.40077 11.319C4.72525 11.0794 3.98701 11.0231 3.27662 11.1571C2.56624 11.2912 1.91459 11.6097 1.40163 12.0736Z" fill="#07326C"/>
</g>
</svg>
