<svg width="21" height="22" viewBox="0 0 21 22" fill="none" xmlns="http://www.w3.org/2000/svg">
<path id="Vector" d="M17.7599 12.0771C17.7583 12.0758 17.7559 12.0763 17.755 12.0782C17.7534 12.0815 17.7484 12.0801 17.7488 12.0764C17.7886 11.7314 17.8277 11.3763 17.8277 11.0213C17.8277 10.6662 17.7984 10.3316 17.759 9.98738C17.7586 9.98375 17.7635 9.98231 17.7651 9.98561C17.766 9.98751 17.7685 9.98805 17.7701 9.98671L19.2699 8.74794C19.8327 8.28306 19.9859 7.48385 19.6348 6.84383L18.362 4.52376C18.0298 3.91828 17.2931 3.66272 16.6574 3.93244L14.8818 4.68574C14.8752 4.68851 14.8735 4.69697 14.8784 4.70211C14.3534 4.27827 13.7782 3.91775 13.1527 3.64158C13.151 3.64083 13.1516 3.63828 13.1534 3.63828C13.1545 3.63828 13.1553 3.63736 13.1551 3.63633L12.8892 1.77987C12.7744 0.978262 12.0878 0.382965 11.278 0.382965H9.17853C8.36204 0.382965 7.67103 0.986033 7.56057 1.79502L7.30769 3.64697C7.30755 3.648 7.30836 3.64892 7.3094 3.64892C7.31126 3.64892 7.31179 3.65147 7.31009 3.65222C6.6846 3.92839 6.10939 4.28891 5.58445 4.71275C5.58936 4.7076 5.58762 4.69914 5.58107 4.69635L3.80067 3.93716C3.1619 3.66477 2.42063 3.92042 2.08558 4.52867L0.810314 6.84375C0.457875 7.48355 0.610467 8.28359 1.17366 8.74876L2.67248 9.98671C2.6741 9.98805 2.67655 9.98751 2.67745 9.98561C2.67902 9.98231 2.684 9.98375 2.68359 9.98738C2.64416 10.3316 2.61486 10.6662 2.61486 11.0213C2.61486 11.3763 2.64415 11.7313 2.69314 12.0762C2.69363 12.0796 2.68893 12.081 2.68746 12.0779C2.68662 12.0762 2.68435 12.0757 2.68285 12.0769L0.557428 13.8298C0.363414 13.9902 0.310946 14.266 0.43248 14.4865L1.98089 17.2956C2.38181 18.0229 3.26659 18.331 4.03256 18.01L5.5964 17.3545C5.60093 17.3526 5.60296 17.3473 5.60084 17.3429C5.5969 17.3346 5.60695 17.3267 5.6141 17.3325C6.13652 17.7528 6.69742 18.103 7.3153 18.3732C7.32036 18.3754 7.3188 18.383 7.31328 18.383C7.31019 18.383 7.30781 18.3857 7.30823 18.3888L7.56691 20.2471C7.67962 21.0569 8.37203 21.6596 9.18956 21.6596H12.2281C12.4878 21.6596 12.7091 21.4707 12.7399 21.2127L13.1247 18.3956C13.1249 18.3945 13.1241 18.3936 13.123 18.3936C13.1212 18.3936 13.1206 18.3911 13.1223 18.3903C13.7364 18.1192 14.3116 17.7668 14.8386 17.3431C14.8457 17.3373 14.8558 17.3453 14.8519 17.3535C14.8497 17.358 14.8518 17.3633 14.8563 17.3652L16.4202 18.0206C17.1861 18.3417 18.0709 18.0336 18.4718 17.3063L20.0202 14.4972C20.1429 14.2745 20.0964 13.9959 19.8953 13.8404L17.7599 12.0771ZM10.2162 14.7447C8.26013 14.7447 6.66891 13.0745 6.66891 11.0213C6.66891 8.96807 8.26013 7.29786 10.2162 7.29786C12.1723 7.29786 13.7635 8.96807 13.7635 11.0213C13.7635 13.0745 12.1723 14.7447 10.2162 14.7447Z" fill="#07326C"/>
</svg>
