<svg width="26" height="24" viewBox="0 0 26 24" fill="none" xmlns="http://www.w3.org/2000/svg">
<g id="f7:car-fill">
<path id="Vector" d="M1.56882 21.3163H2.85304C3.65811 21.3163 4.28907 20.7437 4.28907 20.0006V18.3133C6.70521 18.4539 10.198 18.5541 12.9944 18.5541C15.802 18.5541 19.2948 18.4539 21.7109 18.3133V20.0006C21.7109 20.7437 22.3312 21.3163 23.147 21.3163H24.4312C25.2474 21.3163 25.8784 20.7437 25.8784 20.0006V14.205C25.8784 12.5173 25.5083 11.5629 24.4966 10.3577L23.5825 9.26272C23.1799 7.455 22.4617 5.55643 22.081 4.81329C21.5039 3.678 20.3724 3.00472 18.9252 2.82429C18.1963 2.74372 15.8131 2.68372 12.9944 2.68372C10.1874 2.68372 7.80371 2.754 7.07479 2.82429C5.62761 2.985 4.49614 3.678 3.9195 4.81286C3.53879 5.55643 2.82007 7.455 2.41754 9.26272L1.50336 10.3577C0.491214 11.5633 0.121643 12.5173 0.121643 14.205V20.0006C0.121643 20.7437 0.753072 21.3163 1.56882 21.3163ZM4.61593 8.42914C4.87686 7.32429 5.39918 5.88772 5.75807 5.30486C6.05196 4.83343 6.36768 4.632 6.95546 4.56214C7.78189 4.45157 9.63207 4.39114 12.9944 4.39114C16.3679 4.39114 18.2176 4.43143 19.045 4.56214C19.6216 4.64229 19.9369 4.833 20.2419 5.30529C20.612 5.87786 21.1013 7.32386 21.3841 8.42914C21.4825 8.80072 21.3191 8.94129 20.8947 8.91129C19.0886 8.811 16.9339 8.70043 12.9944 8.70043C9.06657 8.70043 6.91182 8.811 5.10529 8.91129C4.68093 8.94129 4.52864 8.80072 4.61546 8.42914M5.06118 15.9527C4.02768 15.9527 3.25511 15.2293 3.25511 14.2851C3.25511 13.3307 4.02768 12.618 5.06118 12.618C6.09514 12.618 6.86771 13.3307 6.86771 14.2851C6.86771 15.2293 6.09514 15.9523 5.06164 15.9523M20.9384 15.9523C19.9044 15.9523 19.1323 15.2289 19.1323 14.2847C19.1323 13.3303 19.9044 12.6176 20.9384 12.6176C21.9612 12.6176 22.7444 13.3303 22.7444 14.2847C22.7444 15.2289 21.9612 15.9523 20.9384 15.9523ZM10.1112 15.4899C9.34932 15.4899 8.81586 14.9876 8.81586 14.2843C8.81586 13.5711 9.34932 13.0791 10.1112 13.0791H15.8892C16.6507 13.0791 17.1841 13.5711 17.1841 14.2843C17.1841 14.9871 16.6507 15.4899 15.8888 15.4899H10.1112Z" fill="#001F49"/>
</g>
</svg>
