<svg width="23" height="24" viewBox="0 0 23 24" fill="none" xmlns="http://www.w3.org/2000/svg">
<g id="cash-coin 1">
<g clip-path="url(#clip0_261_1177)">
<g id="Group 25">
<path id="Vector" fill-rule="evenodd" clip-rule="evenodd" d="M15.424 22.1968C16.9024 22.1968 18.3203 21.5803 19.3657 20.483C20.4111 19.3857 20.9983 17.8975 20.9983 16.3457C20.9983 14.7939 20.4111 13.3056 19.3657 12.2084C18.3203 11.1111 16.9024 10.4946 15.424 10.4946C13.9456 10.4946 12.5278 11.1111 11.4824 12.2084C10.437 13.3056 9.8497 14.7939 9.8497 16.3457C9.8497 17.8975 10.437 19.3857 11.4824 20.483C12.5278 21.5803 13.9456 22.1968 15.424 22.1968ZM22.3919 16.3457C22.3919 18.2854 21.6578 20.1457 20.3511 21.5173C19.0443 22.889 17.272 23.6595 15.424 23.6595C13.576 23.6595 11.8037 22.889 10.497 21.5173C9.19023 20.1457 8.45612 18.2854 8.45612 16.3457C8.45612 14.4059 9.19023 12.5456 10.497 11.174C11.8037 9.80242 13.576 9.03186 15.424 9.03186C17.272 9.03186 19.0443 9.80242 20.3511 11.174C21.6578 12.5456 22.3919 14.4059 22.3919 16.3457Z" fill="#07326C"/>
<path id="Vector_2" d="M13.2472 17.7265C13.3127 18.5984 13.9691 19.2771 15.1467 19.359V20.0026H15.6693V19.3546C16.8887 19.2654 17.6008 18.5808 17.6008 17.589C17.6008 16.6851 17.0573 16.2199 16.0818 15.98L15.6693 15.8776V14.1223C16.1933 14.1852 16.5249 14.4851 16.6044 14.9005H17.5214C17.4559 14.0594 16.7688 13.4026 15.6693 13.3309V12.6888H15.1467V13.347C14.1057 13.4538 13.3977 14.1106 13.3977 15.0409C13.3977 15.863 13.9245 16.3867 14.8011 16.6002L15.1467 16.6894V18.5501C14.6116 18.4652 14.2562 18.1551 14.1768 17.7265H13.2472ZM15.1425 15.746C14.6283 15.6216 14.3496 15.3656 14.3496 14.9824C14.3496 14.5523 14.6506 14.2305 15.1467 14.1369V15.746H15.1425ZM15.7445 16.8372C16.3703 16.9893 16.6573 17.2351 16.6573 17.6695C16.6573 18.1654 16.2992 18.5047 15.6693 18.5676V16.8196L15.7445 16.8372Z" fill="#07326C"/>
<path id="Vector_3" d="M1.48819 0.25528C1.11858 0.25528 0.764122 0.409392 0.502775 0.683714C0.241428 0.958036 0.0946045 1.3301 0.0946045 1.71805L0.0946045 13.4202C0.0946045 13.8081 0.241428 14.1802 0.502775 14.4545C0.764122 14.7288 1.11858 14.8829 1.48819 14.8829H7.17818C7.25993 14.3788 7.37978 13.8912 7.53772 13.4202H4.27535C4.27535 12.6443 3.9817 11.9002 3.45901 11.3515C2.93631 10.8029 2.22739 10.4946 1.48819 10.4946V4.64358C2.22739 4.64358 2.93631 4.33535 3.45901 3.78671C3.9817 3.23807 4.27535 2.49394 4.27535 1.71805H18.2112C18.2112 2.49394 18.5048 3.23807 19.0275 3.78671C19.5502 4.33535 20.2591 4.64358 20.9983 4.64358V9.80421C21.5279 10.3016 21.9975 10.8691 22.3919 11.4922V1.71805C22.3919 1.3301 22.2451 0.958036 21.9837 0.683714C21.7224 0.409392 21.3679 0.25528 20.9983 0.25528L1.48819 0.25528Z" fill="#07326C"/>
<path id="Vector_4" d="M14.0277 7.69053L14.0304 7.56912C14.0302 7.06533 13.9059 6.57015 13.6698 6.13155C13.4337 5.69295 13.0936 5.32579 12.6826 5.06562C12.2716 4.80545 11.8036 4.6611 11.3238 4.64655C10.844 4.63199 10.3688 4.74772 9.94419 4.98254C9.51956 5.21735 9.15988 5.56329 8.90001 5.98684C8.64014 6.41039 8.48887 6.89721 8.46087 7.40014C8.43286 7.90307 8.52906 8.40507 8.74015 8.85752C8.95124 9.30997 9.27006 9.69754 9.66574 9.98268C10.8703 8.78055 12.389 7.98253 14.0277 7.69053Z" fill="#07326C"/>
</g>
</g>
</g>
<defs>
<clipPath id="clip0_261_1177">
<rect x="0.0946045" y="0.25528" width="22.2973" height="23.4043" rx="10" fill="white"/>
</clipPath>
</defs>
</svg>
