<svg width="30" height="30" viewBox="0 0 30 30" fill="none" xmlns="http://www.w3.org/2000/svg">
<g id="calendar_month">
<path id="Vector" d="M4.91003 15.6378C4.9072 13.2182 5.7978 10.8826 7.41099 9.07924C9.02419 7.27583 11.2464 6.1315 13.6514 5.86573C16.0564 5.59996 18.4749 6.23147 20.4429 7.63913C22.411 9.04678 23.79 11.1315 24.3156 13.4934C25.0021 13.7701 25.6055 14.2195 26.0672 14.798C26.529 15.3765 26.8334 16.0645 26.951 16.7953C26.987 16.4148 27.005 16.029 27.005 15.6378C27.005 8.85831 21.5095 3.36279 14.73 3.36279C7.95055 3.36279 2.45503 8.85831 2.45503 15.6378C2.45288 17.2482 2.7686 18.8432 3.38409 20.3314C3.99958 21.8196 4.90274 23.1716 6.04178 24.3101C6.27179 24.5406 6.58393 24.6703 6.90955 24.6706C7.23517 24.6709 7.54759 24.5419 7.77808 24.3119C8.00857 24.0819 8.13826 23.7698 8.1386 23.4442C8.13895 23.1185 8.00993 22.8061 7.77992 22.5756C6.86827 21.6652 6.14544 20.5836 5.65294 19.393C5.16044 18.2024 4.90797 16.9262 4.91003 15.6378ZM21.7145 13.2982C21.3612 12.2458 20.7745 11.2869 19.9983 10.4932C19.2222 9.69944 18.2766 9.09145 17.2324 8.71465C16.1881 8.33785 15.0722 8.20198 13.9681 8.3172C12.864 8.43243 11.8002 8.79576 10.8562 9.38005C9.91229 9.96433 9.11265 10.7544 8.51709 11.6913C7.92153 12.6282 7.54547 13.6875 7.41702 14.7902C7.28856 15.8929 7.41104 17.0103 7.7753 18.059C8.13956 19.1077 8.73617 20.0605 9.52052 20.8461C9.63457 20.9602 9.76997 21.0508 9.91902 21.1125C10.0681 21.1743 10.2278 21.2062 10.3892 21.2062C10.5505 21.2063 10.7103 21.1746 10.8594 21.1129C11.0084 21.0512 11.1439 20.9607 11.258 20.8467C11.3722 20.7326 11.4627 20.5972 11.5245 20.4482C11.5863 20.2991 11.6181 20.1394 11.6182 19.9781C11.6183 19.8167 11.5865 19.6569 11.5248 19.5078C11.4632 19.3588 11.3727 19.2233 11.2587 19.1092C10.7194 18.5697 10.3133 17.9119 10.0724 17.1881C9.83161 16.4644 9.76274 15.6944 9.87128 14.9394C9.97982 14.1843 10.2628 13.465 10.6977 12.8383C11.1327 12.2117 11.7077 11.695 12.3771 11.3293C13.0465 10.9635 13.7919 10.7588 14.5542 10.7312C15.3165 10.7037 16.0747 10.8542 16.7687 11.1707C17.4628 11.4872 18.0735 11.9611 18.5525 12.5548C19.0315 13.1484 19.3656 13.8455 19.5283 14.5907C20.1105 13.9492 20.8717 13.4986 21.7145 13.2982ZM12.275 15.6378C12.275 14.9867 12.5337 14.3622 12.9941 13.9018C13.4545 13.4414 14.0789 13.1828 14.73 13.1828C15.3811 13.1828 16.0056 13.4414 16.466 13.9018C16.9264 14.3622 17.185 14.9867 17.185 15.6378C17.185 16.2889 16.9264 16.9133 16.466 17.3737C16.0056 17.8341 15.3811 18.0928 14.73 18.0928C14.0789 18.0928 13.4545 17.8341 12.9941 17.3737C12.5337 16.9133 12.275 16.2889 12.275 15.6378ZM25.7775 17.479C25.7775 18.2929 25.4542 19.0735 24.8787 19.649C24.3032 20.2245 23.5227 20.5478 22.7088 20.5478C21.8949 20.5478 21.1143 20.2245 20.5388 19.649C19.9633 19.0735 19.64 18.2929 19.64 17.479C19.64 16.6652 19.9633 15.8846 20.5388 15.3091C21.1143 14.7336 21.8949 14.4103 22.7088 14.4103C23.5227 14.4103 24.3032 14.7336 24.8787 15.3091C25.4542 15.8846 25.7775 16.6652 25.7775 17.479ZM28.2325 24.0769C28.2325 25.9868 26.654 27.9128 22.7088 27.9128C18.7636 27.9128 17.185 25.9942 17.185 24.0769V23.9504C17.185 22.7475 18.1597 21.7753 19.3614 21.7753H26.0562C27.2591 21.7753 28.2325 22.7487 28.2325 23.9504V24.0769Z" fill="#07326C"/>
</g>
</svg>
