<svg width="30" height="30" viewBox="0 0 30 30" fill="none" xmlns="http://www.w3.org/2000/svg">
<g id="newspaper">
<path id="Vector" d="M21.203 11.5723H9.419V14.5183H21.203V11.5723ZM18.257 18.9373H21.203V20.4103H18.257V18.9373ZM9.419 5.6803C8.24701 5.6803 7.12302 6.14587 6.2943 6.97459C5.46557 7.80332 5 8.92731 5 10.0993V21.8833C5 23.0553 5.46557 24.1793 6.2943 25.008C7.12302 25.8367 8.24701 26.3023 9.419 26.3023H21.203C22.375 26.3023 23.499 25.8367 24.3277 25.008C25.1564 24.1793 25.622 23.0553 25.622 21.8833V10.0993C25.622 8.92731 25.1564 7.80332 24.3277 6.97459C23.499 6.14587 22.375 5.6803 21.203 5.6803H9.419ZM7.946 11.5723C7.946 11.1816 8.10119 10.807 8.37743 10.5307C8.65367 10.2545 9.02834 10.0993 9.419 10.0993H21.203C21.5937 10.0993 21.9683 10.2545 22.2446 10.5307C22.5208 10.807 22.676 11.1816 22.676 11.5723V14.5183C22.676 14.909 22.5208 15.2836 22.2446 15.5599C21.9683 15.8361 21.5937 15.9913 21.203 15.9913H9.419C9.02834 15.9913 8.65367 15.8361 8.37743 15.5599C8.10119 15.2836 7.946 14.909 7.946 14.5183V11.5723ZM18.257 17.4643H21.203C21.5937 17.4643 21.9683 17.6195 22.2446 17.8957C22.5208 18.172 22.676 18.5466 22.676 18.9373V20.4103C22.676 20.801 22.5208 21.1756 22.2446 21.4519C21.9683 21.7281 21.5937 21.8833 21.203 21.8833H18.257C17.8663 21.8833 17.4917 21.7281 17.2154 21.4519C16.9392 21.1756 16.784 20.801 16.784 20.4103V18.9373C16.784 18.5466 16.9392 18.172 17.2154 17.8957C17.4917 17.6195 17.8663 17.4643 18.257 17.4643ZM7.946 18.2008C7.946 18.0055 8.0236 17.8181 8.16172 17.68C8.29984 17.5419 8.48717 17.4643 8.6825 17.4643H14.5745C14.7698 17.4643 14.9572 17.5419 15.0953 17.68C15.2334 17.8181 15.311 18.0055 15.311 18.2008C15.311 18.3961 15.2334 18.5835 15.0953 18.7216C14.9572 18.8597 14.7698 18.9373 14.5745 18.9373H8.6825C8.48717 18.9373 8.29984 18.8597 8.16172 18.7216C8.0236 18.5835 7.946 18.3961 7.946 18.2008ZM8.6825 20.4103H14.5745C14.7698 20.4103 14.9572 20.4879 15.0953 20.626C15.2334 20.7641 15.311 20.9515 15.311 21.1468C15.311 21.3421 15.2334 21.5295 15.0953 21.6676C14.9572 21.8057 14.7698 21.8833 14.5745 21.8833H8.6825C8.48717 21.8833 8.29984 21.8057 8.16172 21.6676C8.0236 21.5295 7.946 21.3421 7.946 21.1468C7.946 20.9515 8.0236 20.7641 8.16172 20.626C8.29984 20.4879 8.48717 20.4103 8.6825 20.4103Z" fill="#07326C"/>
</g>
</svg>
