<svg width="30" height="30" viewBox="0 0 30 30" fill="none" xmlns="http://www.w3.org/2000/svg">
<path id="Vector" d="M15 20.5263C6.7125 20.5263 0 23.3526 0 26.8421V30H30V26.8421C30 23.3526 23.2875 20.5263 15 20.5263ZM7.5 11.0526C7.5 12.7277 8.29018 14.3341 9.6967 15.5186C11.1032 16.703 13.0109 17.3684 15 17.3684C16.9891 17.3684 18.8968 16.703 20.3033 15.5186C21.7098 14.3341 22.5 12.7277 22.5 11.0526M14.0625 0C13.5 0 13.125 0.331579 13.125 0.789474V5.52632H11.25V1.57895C11.25 1.57895 7.03125 2.93684 7.03125 7.5C7.03125 7.5 5.625 7.72105 5.625 9.47368H24.375C24.2812 7.72105 22.9688 7.5 22.9688 7.5C22.9688 2.93684 18.75 1.57895 18.75 1.57895V5.52632H16.875V0.789474C16.875 0.331579 16.5188 0 15.9375 0H14.0625Z" fill="#07326C"/>
</svg>
