<svg width="30" height="31" viewBox="0 0 30 31" fill="none" xmlns="http://www.w3.org/2000/svg">
<path id="Vector" d="M25.7058 8.03051V7.42929C25.7045 6.12653 25.3781 4.85325 24.7676 3.76924C24.1571 2.68522 23.2897 1.83877 22.2743 1.33608C21.2588 0.833403 20.1406 0.696892 19.0598 0.94368C17.9791 1.19047 16.984 1.80956 16.1994 2.72328C16.153 2.77864 16.1163 2.84433 16.0915 2.91657C16.0666 2.9888 16.0541 3.06614 16.0547 3.14413V16.4791C16.0549 16.5875 16.0799 16.6938 16.127 16.7867C16.1741 16.8797 16.2416 16.9559 16.3223 17.0071C16.4029 17.0584 16.4938 17.083 16.5853 17.0781C16.6768 17.0733 16.7655 17.0392 16.842 16.9796C17.808 16.2465 18.9301 15.8535 20.0777 15.8463C20.3433 15.8405 20.6007 15.9553 20.797 16.1672C20.9933 16.3791 21.1135 16.672 21.1329 16.9856C21.1402 17.1487 21.1193 17.3119 21.0715 17.4652C21.0237 17.6184 20.95 17.7585 20.8549 17.877C20.7598 17.9954 20.6454 18.0897 20.5185 18.154C20.3917 18.2183 20.255 18.2514 20.117 18.2512C19.0393 18.2512 18.0057 18.7579 17.2436 19.6599C16.4815 20.5619 16.0534 21.7853 16.0534 23.0609V28.1532C16.0533 28.2431 16.0702 28.332 16.103 28.4131C16.1357 28.4943 16.1834 28.5657 16.2426 28.6221C16.9635 29.3283 17.8123 29.8282 18.723 30.0829C19.6336 30.3376 20.5817 30.3403 21.4934 30.0907C22.4051 29.8412 23.2559 29.3462 23.9796 28.6442C24.7034 27.9421 25.2806 27.052 25.6664 26.0429C25.7053 25.9415 25.7195 25.8292 25.7076 25.7187C25.6957 25.6082 25.658 25.5038 25.5989 25.4171C25.5398 25.3304 25.4615 25.2649 25.3727 25.2279C25.2839 25.1908 25.1882 25.1837 25.0962 25.2072C24.4631 25.3791 23.8156 25.4658 23.166 25.4658H22.1844C21.9223 25.4696 21.6687 25.356 21.4744 25.1478C21.2801 24.9395 21.1595 24.6521 21.1367 24.343C21.1275 24.1785 21.147 24.0135 21.1939 23.8583C21.2408 23.7031 21.3141 23.561 21.4094 23.4408C21.5047 23.3205 21.6198 23.2248 21.7477 23.1594C21.8755 23.0941 22.0134 23.0605 22.1526 23.0609H23.1686C24.2299 23.0628 25.2758 22.7595 26.2163 22.1771C27.33 21.4906 28.2552 20.4424 28.8835 19.1556C29.5118 17.8687 29.817 16.3965 29.7634 14.9116C29.7098 13.4267 29.2997 11.9906 28.581 10.7719C27.8623 9.5531 26.8649 8.60214 25.7058 8.03051ZM24.1819 13.4414H23.674C22.4615 13.4414 21.2987 12.8714 20.4414 11.8566C19.584 10.8419 19.1024 9.46558 19.1024 8.03051V7.42929C19.1024 7.11039 19.2094 6.80454 19.3999 6.57904C19.5905 6.35354 19.8489 6.22686 20.1183 6.22686C20.3877 6.22686 20.6461 6.35354 20.8366 6.57904C21.0272 6.80454 21.1342 7.11039 21.1342 7.42929V8.03051C21.1342 8.42527 21.1999 8.81617 21.3275 9.18088C21.4552 9.5456 21.6422 9.87698 21.8781 10.1561C22.3544 10.7199 23.0004 11.0366 23.674 11.0366H24.1819C24.4514 11.0366 24.7098 11.1633 24.9003 11.3888C25.0908 11.6143 25.1978 11.9201 25.1978 12.239C25.1978 12.5579 25.0908 12.8638 24.9003 13.0893C24.7098 13.3148 24.4514 13.4414 24.1819 13.4414ZM9.9592 0.815919C8.47782 0.817908 7.05759 1.51531 6.01009 2.75513C4.9626 3.99494 4.37338 5.67593 4.3717 7.42929V8.03051C3.21271 8.60245 2.21552 9.55366 1.49708 10.7726C0.778638 11.9915 0.368722 13.4276 0.315405 14.9125C0.262088 16.3974 0.567579 17.8695 1.19605 19.1562C1.82453 20.4429 2.74993 21.4908 3.86374 22.1771C4.80418 22.7595 5.85008 23.0628 6.91147 23.0609H7.89309C8.15562 23.0563 8.40988 23.1696 8.60472 23.3779C8.79956 23.5862 8.92053 23.8741 8.94329 24.1837C8.95251 24.3481 8.93307 24.5131 8.88616 24.6683C8.83926 24.8235 8.76589 24.9657 8.67062 25.0859C8.57535 25.2061 8.46021 25.3019 8.33235 25.3672C8.20449 25.4326 8.06665 25.4661 7.92738 25.4658H6.91147C6.26139 25.4661 5.61339 25.3788 4.97997 25.2057C4.88805 25.182 4.79236 25.1889 4.70358 25.2258C4.6148 25.2627 4.53641 25.328 4.47716 25.4145C4.4179 25.501 4.38011 25.6053 4.36799 25.7157C4.35587 25.8261 4.3699 25.9384 4.40852 26.0399C4.79423 27.0492 5.3714 27.9397 6.09516 28.642C6.81893 29.3444 7.66979 29.8397 8.5816 30.0895C9.49342 30.3393 10.4416 30.3369 11.3525 30.0824C12.2634 29.8279 13.1124 29.3282 13.8336 28.6221C13.8928 28.5657 13.9405 28.4943 13.9732 28.4131C14.006 28.332 14.0229 28.2431 14.0228 28.1532V23.0609C14.0228 21.7853 13.5947 20.5619 12.8326 19.6599C12.0705 18.7579 11.0369 18.2512 9.9592 18.2512C9.82118 18.2514 9.68457 18.2183 9.5577 18.154C9.43083 18.0897 9.31637 17.9954 9.22131 17.877C9.12624 17.7585 9.05256 17.6184 9.00476 17.4652C8.95696 17.3119 8.93604 17.1487 8.94329 16.9856C8.96274 16.6717 9.08314 16.3786 9.27969 16.1667C9.47625 15.9547 9.73399 15.8401 9.99983 15.8463C11.1473 15.8535 12.2695 16.2465 13.2355 16.9796C13.312 17.0392 13.4007 17.0733 13.4922 17.0781C13.5837 17.083 13.6745 17.0584 13.7552 17.0071C13.8359 16.9559 13.9034 16.8797 13.9505 16.7867C13.9976 16.6938 14.0226 16.5875 14.0228 16.4791V3.14413C14.0233 2.98631 13.9713 2.83461 13.8781 2.72177C12.835 1.50014 11.4266 0.815222 9.9592 0.815919ZM10.9751 8.03051C10.9751 9.46558 10.4935 10.8419 9.63612 11.8566C8.77878 12.8714 7.61598 13.4414 6.40352 13.4414H5.89556C5.62612 13.4414 5.36772 13.3148 5.1772 13.0893C4.98668 12.8638 4.87965 12.5579 4.87965 12.239C4.87965 11.9201 4.98668 11.6143 5.1772 11.3888C5.36772 11.1633 5.62612 11.0366 5.89556 11.0366H6.40352C6.73704 11.0366 7.0673 10.9588 7.37544 10.8078C7.68358 10.6567 7.96357 10.4353 8.19941 10.1561C8.43525 9.87698 8.62232 9.5456 8.74996 9.18088C8.8776 8.81617 8.94329 8.42527 8.94329 8.03051V7.42929C8.94329 7.11039 9.05032 6.80454 9.24084 6.57904C9.43136 6.35354 9.68976 6.22686 9.9592 6.22686C10.2286 6.22686 10.487 6.35354 10.6776 6.57904C10.8681 6.80454 10.9751 7.11039 10.9751 7.42929V8.03051Z" fill="#07326C"/>
</svg>
