<svg width="27" height="27" viewBox="0 0 27 27" fill="none" xmlns="http://www.w3.org/2000/svg">
<g id="f7:car-fill">
<g clip-path="url(#clip0_261_1199)">
<path id="Vector" d="M1.65759 23.4003H2.95916C3.77511 23.4003 4.4146 22.7912 4.4146 22.0006V20.2056C6.8634 20.3551 10.4034 20.4618 13.2376 20.4618C16.0831 20.4618 19.6231 20.3551 22.0719 20.2056V22.0006C22.0719 22.7912 22.7006 23.4003 23.5273 23.4003H24.8289C25.6561 23.4003 26.2956 22.7912 26.2956 22.0006V15.8351C26.2956 14.0396 25.9206 13.0243 24.8952 11.7422L23.9687 10.5773C23.5607 8.65424 22.8328 6.63448 22.4469 5.8439C21.862 4.63615 20.7153 3.91989 19.2485 3.72794C18.5098 3.64223 16.0944 3.5784 13.2376 3.5784C10.3926 3.5784 7.97674 3.65317 7.23796 3.72794C5.77123 3.89892 4.62447 4.63615 4.04004 5.84344C3.65418 6.63448 2.92575 8.65424 2.51778 10.5773L1.59124 11.7422C0.565422 13.0248 0.190857 14.0396 0.190857 15.8351V22.0006C0.190857 22.7912 0.830818 23.4003 1.65759 23.4003ZM4.74588 9.69056C5.01033 8.51518 5.53971 6.98691 5.90345 6.36685C6.20132 5.86533 6.5213 5.65104 7.11703 5.57673C7.95462 5.4591 9.82981 5.39481 13.2376 5.39481C16.6567 5.39481 18.5314 5.43767 19.3699 5.57673C19.9544 5.66199 20.2739 5.86487 20.583 6.36731C20.9581 6.97642 21.454 8.51472 21.7406 9.69056C21.8404 10.0858 21.6747 10.2354 21.2446 10.2035C19.4142 10.0968 17.2303 9.97916 13.2376 9.97916C9.25666 9.97916 7.07279 10.0968 5.24185 10.2035C4.81175 10.2354 4.65741 10.0858 4.74541 9.69056M5.19714 17.6944C4.14968 17.6944 3.36667 16.9248 3.36667 15.9203C3.36667 14.905 4.14968 14.1468 5.19714 14.1468C6.24508 14.1468 7.02809 14.905 7.02809 15.9203C7.02809 16.9248 6.24508 17.6939 5.19761 17.6939M21.2889 17.6939C20.2409 17.6939 19.4584 16.9243 19.4584 15.9199C19.4584 14.9045 20.2409 14.1463 21.2889 14.1463C22.3255 14.1463 23.1194 14.9045 23.1194 15.9199C23.1194 16.9243 22.3255 17.6939 21.2889 17.6939ZM10.3154 17.202C9.54323 17.202 9.00256 16.6676 9.00256 15.9194C9.00256 15.1608 9.54323 14.6374 10.3154 14.6374H16.1715C16.9433 14.6374 17.4839 15.1608 17.4839 15.9194C17.4839 16.6672 16.9433 17.202 16.1711 17.202H10.3154Z" fill="#001F49"/>
</g>
</g>
<defs>
<clipPath id="clip0_261_1199">
<rect x="0.0675659" y="0.723389" width="26.3514" height="25.5319" rx="10" fill="white"/>
</clipPath>
</defs>
</svg>
