<svg width="30" height="33" viewBox="0 0 30 33" fill="none" xmlns="http://www.w3.org/2000/svg">
<g id="Dropdown">
<path id="Vector" d="M28.842 23.1191L25.7195 17.3543V11.352C25.7195 5.35917 20.844 0.483643 14.8511 0.483643C8.85832 0.483643 3.98279 5.35917 3.98279 11.352V17.3543L0.860143 23.119C0.718534 23.3804 0.647261 23.6741 0.653309 23.9713C0.659358 24.2685 0.742519 24.5591 0.894645 24.8145C1.04677 25.0699 1.26264 25.2815 1.52111 25.4284C1.77957 25.5752 2.07177 25.6525 2.36906 25.6525H8.58511C8.56777 25.8426 8.55902 26.0335 8.55887 26.2245C8.55887 27.8933 9.2218 29.4937 10.4018 30.6737C11.5818 31.8538 13.1823 32.5167 14.8511 32.5167C16.5199 32.5167 18.1203 31.8538 19.3003 30.6737C20.4804 29.4937 21.1433 27.8933 21.1433 26.2245C21.1433 26.0314 21.1341 25.8409 21.117 25.6525H27.3331C27.6304 25.6524 27.9225 25.5752 28.1809 25.4283C28.4394 25.2814 28.6552 25.0699 28.8073 24.8145C28.9594 24.559 29.0425 24.2685 29.0486 23.9713C29.0546 23.6741 28.9836 23.3804 28.842 23.1191ZM18.8553 26.2245C18.8557 26.7747 18.7428 27.3192 18.5234 27.8239C18.3041 28.3285 17.9831 28.7825 17.5804 29.1576C17.1778 29.5327 16.7022 29.8207 16.1832 30.0038C15.6643 30.1869 15.1132 30.261 14.5644 30.2216C14.0155 30.1822 13.4807 30.0301 12.9933 29.7748C12.5058 29.5194 12.0762 29.1664 11.7313 28.7376C11.3864 28.3089 11.1335 27.8137 10.9885 27.2828C10.8435 26.752 10.8095 26.197 10.8886 25.6525H18.8137C18.8412 25.8419 18.8551 26.0331 18.8553 26.2245ZM3.3294 23.3644L6.27087 17.9341V11.352C6.27087 9.07636 7.17486 6.89394 8.78397 5.28482C10.3931 3.67571 12.5755 2.77172 14.8511 2.77172C17.1268 2.77172 19.3092 3.67571 20.9183 5.28482C22.5274 6.89394 23.4314 9.07636 23.4314 11.352V17.9341L26.3727 23.3644H3.3294Z" fill="#4B4B4C"/>
</g>
</svg>
