<svg width="16" height="15" viewBox="0 0 16 15" fill="none" xmlns="http://www.w3.org/2000/svg">
<g id="Rating Item">
<path id="Vector" d="M15.198 5.00977L10.8075 4.39453L8.86615 0.527344C8.68694 0.175781 8.32854 0 8 0C7.67146 0 7.31305 0.175781 7.13385 0.527344L5.19248 4.39453L0.802009 5.00977C0.0254619 5.12695 -0.27321 6.09375 0.294266 6.62109L3.46019 9.63867L2.71351 13.916C2.59404 14.502 3.10178 15 3.63939 15C3.78873 15 3.93806 14.9707 4.0874 14.8828L8 12.8906L11.9126 14.8828C12.0619 14.9707 12.2113 15 12.3606 15C12.8982 15 13.406 14.502 13.2865 13.916L12.5398 9.63867L15.7057 6.62109C16.2732 6.09375 15.9745 5.12695 15.198 5.00977ZM11.0465 9.4043L11.7334 13.2129L8.20907 11.3965C8.0896 11.3379 7.9104 11.3379 7.79093 11.3965L4.2666 13.2129L4.95355 9.4043C4.98341 9.22852 4.92368 9.08203 4.80421 8.96484L1.96683 6.26953L5.87943 5.71289C6.05863 5.71289 6.1781 5.5957 6.23784 5.47852L8 1.99219L9.76216 5.47852C9.8219 5.5957 9.94137 5.71289 10.1206 5.71289L14.0332 6.26953L11.1958 8.96484C11.0763 9.08203 11.0166 9.22852 11.0465 9.4043Z" fill="#E9E9EB"/>
<path id="Subtract" fill-rule="evenodd" clip-rule="evenodd" d="M8 2.21667e-06C7.65907 -0.000713987 7.31794 0.172121 7.14168 0.521791L5.18879 4.40022L0.819452 5.02416C0.035902 5.13548 -0.278116 6.08165 0.290107 6.62358L3.45122 9.64078L2.70356 13.9029C2.56898 14.6734 3.39739 15.2504 4.09122 14.8901L8 12.8777L8 2.21667e-06Z" fill="#FFBE18"/>
</g>
</svg>
