<svg width="30" height="31" viewBox="0 0 30 31" fill="none" xmlns="http://www.w3.org/2000/svg">
<g id="vaadin:records" clip-path="url(#clip0_412_3159)">
<path id="Vector" d="M7.67444 17.4489H15.0394V21.1314H7.67444V17.4489Z" fill="#07326C"/>
<path id="Vector_2" d="M29.7694 4.56006H27.9282V0.877563H9.5157V4.56006H5.8332V6.86163L4.72845 8.24256H2.1507V11.4648L0.309448 13.7663V30.3376H22.4044L29.7694 21.1313V4.56006ZM3.99195 10.0838H18.7219V13.7663H3.99195V10.0838ZM20.5632 28.4963H2.1507V15.6076H20.5632V28.4963ZM22.4044 13.7663H20.5632V8.24256H7.67445V6.40131H22.4044V13.7663ZM26.0869 9.16319L24.2457 11.4648V4.56006H11.3569V2.71881H26.0869V9.16319Z" fill="#07326C"/>
</g>
<defs>
<clipPath id="clip0_412_3159">
<rect width="29.46" height="29.46" fill="white" transform="translate(0.309448 0.877563)"/>
</clipPath>
</defs>
</svg>
