<svg width="30" height="30" viewBox="0 0 30 30" fill="none" xmlns="http://www.w3.org/2000/svg">
<g id="display_settings">
<g id="Vector">
<path d="M24.8598 3.80078H5.21907C3.85649 3.80078 2.76398 4.8933 2.76398 6.25588V20.9864C2.76398 22.3367 3.85649 23.4415 5.21907 23.4415H10.1293V25.8966H19.9496V23.4415H24.8598C26.2101 23.4415 27.3149 22.3367 27.3149 20.9864V6.25588C27.3149 4.8933 26.2101 3.80078 24.8598 3.80078ZM24.8598 20.9864H5.21907V6.25588H24.8598V20.9864Z" fill="#07326C"/>
<path d="M17.4945 10.2454H7.67417V12.0867H17.4945V10.2454Z" fill="#07326C"/>
<path d="M20.5634 12.0867H22.4047V10.2454H20.5634V8.71097H18.7221V13.6212H20.5634V12.0867Z" fill="#07326C"/>
<path d="M22.4047 15.1556H12.5844V16.9969H22.4047V15.1556Z" fill="#07326C"/>
<path d="M9.51549 18.5313H11.3568V13.6212H9.51549V15.1556H7.67417V16.9969H9.51549V18.5313Z" fill="#07326C"/>
</g>
</g>
</svg>
