<svg width="30" height="31" viewBox="0 0 30 31" fill="none" xmlns="http://www.w3.org/2000/svg">
<g id="groups" clip-path="url(#clip0_246_1081)">
<path id="Vector" d="M5.44272 16.8366C6.79302 16.8366 7.89781 15.7318 7.89781 14.3815C7.89781 13.0312 6.79302 11.9264 5.44272 11.9264C4.09242 11.9264 2.98763 13.0312 2.98763 14.3815C2.98763 15.7318 4.09242 16.8366 5.44272 16.8366ZM6.82985 18.1869C6.37566 18.1133 5.92146 18.0642 5.44272 18.0642C4.22745 18.0642 3.07355 18.3219 2.03014 18.7761C1.12175 19.1689 0.532532 20.0528 0.532532 21.0471V22.9743H6.05649V20.998C6.05649 19.9791 6.33883 19.0216 6.82985 18.1869ZM25.0835 16.8366C26.4338 16.8366 27.5386 15.7318 27.5386 14.3815C27.5386 13.0312 26.4338 11.9264 25.0835 11.9264C23.7332 11.9264 22.6284 13.0312 22.6284 14.3815C22.6284 15.7318 23.7332 16.8366 25.0835 16.8366ZM29.9937 21.0471C29.9937 20.0528 29.4044 19.1689 28.4961 18.7761C27.4526 18.3219 26.2987 18.0642 25.0835 18.0642C24.6047 18.0642 24.1505 18.1133 23.6963 18.1869C24.1874 19.0216 24.4697 19.9791 24.4697 20.998V22.9743H29.9937V21.0471ZM20.4679 17.6345C19.0317 16.9962 17.264 16.5297 15.2631 16.5297C13.2622 16.5297 11.4945 17.0085 10.0583 17.6345C8.73255 18.2237 7.89781 19.5495 7.89781 20.998V22.9743H22.6284V20.998C22.6284 19.5495 21.7936 18.2237 20.4679 17.6345ZM10.4388 20.5192C10.5493 20.2369 10.5984 20.0405 11.5559 19.6722C12.7466 19.2058 13.9987 18.9848 15.2631 18.9848C16.5275 18.9848 17.7796 19.2058 18.9703 19.6722C19.9155 20.0405 19.9646 20.2369 20.0874 20.5192H10.4388ZM15.2631 10.6989C15.9382 10.6989 16.4906 11.2513 16.4906 11.9264C16.4906 12.6016 15.9382 13.154 15.2631 13.154C14.5879 13.154 14.0355 12.6016 14.0355 11.9264C14.0355 11.2513 14.5879 10.6989 15.2631 10.6989ZM15.2631 8.24377C13.2254 8.24377 11.5805 9.88869 11.5805 11.9264C11.5805 13.9641 13.2254 15.6091 15.2631 15.6091C17.3008 15.6091 18.9457 13.9641 18.9457 11.9264C18.9457 9.88869 17.3008 8.24377 15.2631 8.24377Z" fill="#07326C"/>
</g>
<defs>
<clipPath id="clip0_246_1081">
<rect width="29.4611" height="29.4611" fill="white" transform="translate(0.532532 0.87854)"/>
</clipPath>
</defs>
</svg>
