<svg width="32" height="30" viewBox="0 0 32 30" fill="none" xmlns="http://www.w3.org/2000/svg">
<path id="Vector" fill-rule="evenodd" clip-rule="evenodd" d="M15.1579 0C15.6046 0 16.033 0.185924 16.3488 0.51687C16.6647 0.847817 16.8421 1.29668 16.8421 1.76471C16.8421 2.23274 16.6647 2.68159 16.3488 3.01254C16.033 3.34349 15.6046 3.52941 15.1579 3.52941H13.4737V5.29412H18.1288C18.6515 5.29415 19.167 5.42163 19.6345 5.66647L25.0846 8.52176C25.6443 8.81481 26.115 9.26539 26.4441 9.82301C26.7731 10.3806 26.9473 11.0232 26.9474 11.6788V15.8824H28.6316V14.1176C28.6316 13.6496 28.809 13.2008 29.1249 12.8698C29.4407 12.5389 29.8691 12.3529 30.3158 12.3529C30.7625 12.3529 31.1909 12.5389 31.5067 12.8698C31.8226 13.2008 32 13.6496 32 14.1176V21.1765C32 21.6445 31.8226 22.0934 31.5067 22.4243C31.1909 22.7553 30.7625 22.9412 30.3158 22.9412C29.8691 22.9412 29.4407 22.7553 29.1249 22.4243C28.809 22.0934 28.6316 21.6445 28.6316 21.1765V19.4118H26.9474V22.0588C26.9474 22.6067 26.8256 23.1471 26.5918 23.6372C26.3579 24.1273 26.0183 24.5536 25.6 24.8824L19.9865 29.2941C19.4035 29.7523 18.6943 30 17.9655 30H3.36842C2.47506 30 1.61829 29.6282 0.986588 28.9663C0.354886 28.3044 0 27.4066 0 26.4706V8.82353C0 7.88747 0.354886 6.98975 0.986588 6.32786C1.61829 5.66597 2.47506 5.29412 3.36842 5.29412H10.1053V3.52941H8.42105C7.97437 3.52941 7.54599 3.34349 7.23014 3.01254C6.91429 2.68159 6.73684 2.23274 6.73684 1.76471C6.73684 1.29668 6.91429 0.847817 7.23014 0.51687C7.54599 0.185924 7.97437 0 8.42105 0H15.1579ZM13.4989 11.7229C13.145 11.4999 12.7253 11.421 12.3195 11.501C11.9136 11.581 11.55 11.8145 11.2977 12.1571L11.1882 12.3282L8.67705 16.7118C8.53031 16.9674 8.44714 17.2575 8.43516 17.5555C8.42317 17.8535 8.48276 18.1499 8.60845 18.4175C8.73415 18.6851 8.92194 18.9154 9.15461 19.0873C9.38729 19.2591 9.65741 19.3671 9.94021 19.4012L10.1356 19.4118H12.1836L11.1882 21.1518C10.9689 21.5377 10.8983 21.9968 10.9908 22.4355C11.0833 22.8741 11.332 23.2592 11.6861 23.5124C12.0403 23.7656 12.4733 23.8677 12.8968 23.7979C13.3203 23.7282 13.7025 23.4918 13.9655 23.1371L14.0766 22.9676L16.5861 18.5824C16.7328 18.3268 16.816 18.0367 16.828 17.7386C16.84 17.4406 16.7804 17.1442 16.6547 16.8766C16.529 16.609 16.3412 16.3787 16.1085 16.2068C15.8759 16.035 15.6058 15.927 15.3229 15.8929L15.1276 15.8824H13.0796L14.0749 14.1441C14.3049 13.743 14.3734 13.2626 14.2654 12.8086C14.1574 12.3545 13.8817 11.964 13.4989 11.7229Z" fill="#001838"/>
</svg>
