<svg width="40" height="30" viewBox="0 0 40 30" fill="none" xmlns="http://www.w3.org/2000/svg">
<path id="Vector" d="M2.24746 30H4.24183C5.4921 30 6.47199 29.0781 6.47199 27.8816V25.1649C10.2242 25.3913 15.6486 25.5527 19.9914 25.5527C24.3514 25.5527 29.7758 25.3913 33.528 25.1649V27.8816C33.528 29.0781 34.4913 30 35.7582 30H37.7525C39.0201 30 40 29.0781 40 27.8816V18.5502C40 15.8329 39.4253 14.2962 37.8542 12.3558L36.4345 10.5927C35.8094 7.68217 34.6939 4.62531 34.1027 3.42879C33.2064 1.60088 31.4493 0.516837 29.2018 0.226332C28.0698 0.0966051 24.3687 0 19.9914 0C15.632 0 11.9302 0.113166 10.7982 0.226332C8.55072 0.485095 6.79357 1.60088 5.89805 3.4281C5.3068 4.62531 4.19064 7.68217 3.56551 10.5927L2.14579 12.3558C0.573942 14.2969 0 15.8329 0 18.5502V27.8816C0 29.0781 0.980604 30 2.24746 30ZM6.9796 9.25062C7.38482 7.47171 8.19598 5.15871 8.75334 4.22026C9.20975 3.46122 9.70005 3.1369 10.6129 3.02443C11.8963 2.8464 14.7696 2.7491 19.9914 2.7491C25.2304 2.7491 28.103 2.81397 29.3878 3.02443C30.2834 3.15346 30.7729 3.46053 31.2467 4.22095C31.8213 5.14284 32.5813 7.47102 33.0204 9.25062C33.1733 9.84888 32.9195 10.0752 32.2604 10.0269C29.4556 9.86544 26.1093 9.68741 19.9914 9.68741C13.8914 9.68741 10.5451 9.86544 7.73956 10.0269C7.08054 10.0752 6.84404 9.84888 6.97887 9.25062M7.67107 21.3642C6.06605 21.3642 4.86625 20.1994 4.86625 18.6793C4.86625 17.1426 6.06605 15.995 7.67107 15.995C9.2768 15.995 10.4766 17.1426 10.4766 18.6793C10.4766 20.1994 9.27681 21.3635 7.67179 21.3635M32.3282 21.3635C30.7225 21.3635 29.5234 20.1987 29.5234 18.6786C29.5234 17.1419 30.7225 15.9943 32.3282 15.9943C33.9166 15.9943 35.133 17.1419 35.133 18.6786C35.133 20.1987 33.9166 21.3635 32.3282 21.3635ZM15.5137 20.619C14.3305 20.619 13.5021 19.8102 13.5021 18.6779C13.5021 17.5297 14.3305 16.7375 15.5137 16.7375H24.487C25.6695 16.7375 26.4979 17.5297 26.4979 18.6779C26.4979 19.8096 25.6695 20.619 24.4863 20.619H15.5137Z" fill="#001838"/>
</svg>
