<svg width="28" height="30" viewBox="0 0 28 30" fill="none" xmlns="http://www.w3.org/2000/svg">
<path id="Vector" d="M23.3333 11.6667C22.8913 11.6667 22.4674 11.4911 22.1548 11.1785C21.8423 10.866 21.6667 10.442 21.6667 10C21.6667 9.55797 21.8423 9.13405 22.1548 8.82149C22.4674 8.50893 22.8913 8.33333 23.3333 8.33333C23.7754 8.33333 24.1993 8.50893 24.5118 8.82149C24.8244 9.13405 25 9.55797 25 10C25 10.442 24.8244 10.866 24.5118 11.1785C24.1993 11.4911 23.7754 11.6667 23.3333 11.6667ZM13.3333 11.6667H3.33333V3.33333H13.3333M26.2833 7.05L26.3 7.03333L20.1 0.833333L18.3333 2.6L21.85 6.11667C20.2833 6.66667 19.1667 8.21667 19.1667 10C19.1667 10.5472 19.2744 11.089 19.4838 11.5945C19.6932 12.1 20.0001 12.5594 20.3871 12.9463C21.1685 13.7277 22.2283 14.1667 23.3333 14.1667C23.9333 14.1667 24.4833 14.0333 25 13.8167V25.8333C25 26.2754 24.8244 26.6993 24.5118 27.0118C24.1993 27.3244 23.7754 27.5 23.3333 27.5C22.8913 27.5 22.4674 27.3244 22.1548 27.0118C21.8423 26.6993 21.6667 26.2754 21.6667 25.8333V18.3333C21.6667 17.4493 21.3155 16.6014 20.6904 15.9763C20.0652 15.3512 19.2174 15 18.3333 15H16.6667V3.33333C16.6667 2.44928 16.3155 1.60143 15.6904 0.976311C15.0652 0.351189 14.2174 0 13.3333 0H3.33333C1.48333 0 0 1.48333 0 3.33333V30H16.6667V17.5H19.1667V25.8333C19.1667 26.9384 19.6057 27.9982 20.3871 28.7796C21.1685 29.561 22.2283 30 23.3333 30C23.8805 30 24.4223 29.8922 24.9278 29.6828C25.4334 29.4734 25.8927 29.1665 26.2796 28.7796C26.6665 28.3927 26.9734 27.9334 27.1828 27.4278C27.3922 26.9223 27.5 26.3805 27.5 25.8333V10C27.5 8.85 27.0333 7.8 26.2833 7.05Z" fill="#001838"/>
</svg>
