<svg width="30" height="31" viewBox="0 0 30 31" fill="none" xmlns="http://www.w3.org/2000/svg">
<g id="fluent:vehicle-car-profile-16-filled">
<path id="Vector" d="M21.992 12.6079L21.7434 12.5196L19.6536 8.60139C19.2611 7.86506 18.6758 7.24927 17.9604 6.81987C17.2449 6.39047 16.4262 6.16362 15.5918 6.16357H10.3295C9.36319 6.16353 8.42135 6.46761 7.63747 7.03272C6.8536 7.59782 6.26745 8.39529 5.96208 9.31211L4.96597 12.3005C4.13143 12.6522 3.41919 13.2423 2.91842 13.9969C2.41765 14.7515 2.1506 15.6371 2.1507 16.5427V18.592C2.1507 19.8993 2.92954 21.0225 4.04718 21.5288C4.19192 22.3581 4.61639 23.1127 5.24991 23.667C5.88342 24.2213 6.68773 24.5419 7.52887 24.5753C8.37 24.6086 9.19717 24.3528 9.87261 23.8504C10.5481 23.348 11.031 22.6294 11.2409 21.8142H18.8379C19.0479 22.6294 19.5308 23.348 20.2063 23.8504C20.8817 24.3528 21.7089 24.6086 22.55 24.5753C23.3912 24.5419 24.1955 24.2213 24.829 23.667C25.4625 23.1127 25.887 22.3581 26.0317 21.5288C26.5969 21.2737 27.0765 20.8609 27.4129 20.34C27.7493 19.819 27.9282 19.2121 27.9282 18.592V17.9678C27.9281 17.0176 27.6338 16.0907 27.0859 15.3143C26.538 14.538 25.7633 13.9502 24.868 13.6317L22.0878 12.6429V12.6079H21.992ZM7.70575 9.89395C7.88914 9.34332 8.24134 8.86445 8.71233 8.52534C9.18331 8.18623 9.74916 8.0041 10.3295 8.00482H12.2776V12.6079H6.80353L7.70575 9.89395ZM19.7033 12.6079H14.1188V8.00482H15.5918C16.0925 8.00465 16.5838 8.14058 17.0132 8.3981C17.4427 8.65561 17.794 9.02501 18.0296 9.46678L19.7033 12.6079ZM5.8332 20.8936C5.8332 20.4052 6.02718 19.9369 6.37249 19.5916C6.71779 19.2463 7.18612 19.0523 7.67445 19.0523C8.16278 19.0523 8.6311 19.2463 8.97641 19.5916C9.32171 19.9369 9.5157 20.4052 9.5157 20.8936C9.5157 21.3819 9.32171 21.8502 8.97641 22.1955C8.6311 22.5408 8.16278 22.7348 7.67445 22.7348C7.18612 22.7348 6.71779 22.5408 6.37249 22.1955C6.02718 21.8502 5.8332 21.3819 5.8332 20.8936ZM22.4044 19.0523C22.8928 19.0523 23.3611 19.2463 23.7064 19.5916C24.0517 19.9369 24.2457 20.4052 24.2457 20.8936C24.2457 21.3819 24.0517 21.8502 23.7064 22.1955C23.3611 22.5408 22.8928 22.7348 22.4044 22.7348C21.9161 22.7348 21.4478 22.5408 21.1025 22.1955C20.7572 21.8502 20.5632 21.3819 20.5632 20.8936C20.5632 20.4052 20.7572 19.9369 21.1025 19.5916C21.4478 19.2463 21.9161 19.0523 22.4044 19.0523Z" fill="#07326C"/>
</g>
</svg>
